# xmcd
#
# Track frame offsets: 
#        150
#        19726
#        42884
#        62418
#
# Disc length: 1138 seconds
#
# Revision: 2
# Processed by: cddbd v1.5.2PL0 Copyright (c) Steve Scherf et al.
# Submitted via: ExactAudioCopy v1.3
#
DISCID=27047004
DTITLE=???? - ????????
DYEAR=1996
DGENRE=J-pop
TTITLE0=Duca - new world
TTITLE1=Duca - AI
TTITLE2=new world(Instrumental ver.)
TTITLE3=AI(Instrumental ver.)
EXTD=YEAR: 1996
EXTT0=
EXTT1=
EXTT2=
EXTT3=
PLAYORDER=
